<?xml version="1.0" encoding="UTF-8" standalone="no"?>
<!-- Created with Inkscape (http://www.inkscape.org/) -->

<svg
   xmlns:dc="http://purl.org/dc/elements/1.1/"
   xmlns:cc="http://creativecommons.org/ns#"
   xmlns:rdf="http://www.w3.org/1999/02/22-rdf-syntax-ns#"
   xmlns:svg="http://www.w3.org/2000/svg"
   xmlns="http://www.w3.org/2000/svg"
   xmlns:sodipodi="http://sodipodi.sourceforge.net/DTD/sodipodi-0.dtd"
   xmlns:inkscape="http://www.inkscape.org/namespaces/inkscape"
   width="210mm"
   height="297mm"
   viewBox="0 0 210 297"
   version="1.1"
   id="svg1184"
   inkscape:version="0.92.3 (2405546, 2018-03-11)"
   sodipodi:docname="unc.svg">
  <defs
     id="defs1178" />
  <sodipodi:namedview
     id="base"
     pagecolor="#ffffff"
     bordercolor="#666666"
     borderopacity="1.0"
     inkscape:pageopacity="0.0"
     inkscape:pageshadow="2"
     inkscape:zoom="0.98994949"
     inkscape:cx="105.66464"
     inkscape:cy="962.2343"
     inkscape:document-units="mm"
     inkscape:current-layer="layer1"
     showgrid="false"
     inkscape:window-width="1920"
     inkscape:window-height="1017"
     inkscape:window-x="-8"
     inkscape:window-y="-8"
     inkscape:window-maximized="1" />
  <metadata
     id="metadata1181">
    <rdf:RDF>
      <cc:Work
         rdf:about="">
        <dc:format>image/svg+xml</dc:format>
        <dc:type
           rdf:resource="http://purl.org/dc/dcmitype/StillImage" />
        <dc:title></dc:title>
      </cc:Work>
    </rdf:RDF>
  </metadata>
  <g
     inkscape:label="Layer 1"
     inkscape:groupmode="layer"
     id="layer1">
    <path
       style="opacity:1;fill:#322aff;fill-opacity:0.85185188;stroke:#000000;stroke-width:3.77952766;stroke-linecap:butt;stroke-linejoin:round;stroke-miterlimit:4;stroke-dasharray:none;stroke-dashoffset:0;stroke-opacity:1;paint-order:markers stroke fill"
       d="M 70.710938 125.5 L 70.710938 396.2207 L 268.21289 396.2207 L 268.21289 125.5 L 182.31836 125.5 L 182.31836 284.61523 L 204.05078 284.61523 L 204.05078 299.73438 L 144.44922 299.73438 L 144.44922 284.61523 L 167.19922 284.61523 L 167.19922 125.5 L 70.710938 125.5 z M 283.33203 125.5 L 283.33203 396.2207 L 337.86914 396.2207 L 337.86914 219.44141 L 352.98633 219.44141 L 352.98633 396.2207 L 477.3125 396.2207 L 477.3125 125.5 L 421.7793 125.5 L 421.7793 292.17578 L 406.66016 292.17578 L 406.66016 125.5 L 283.33203 125.5 z M 492.43164 125.5 L 492.43164 396.2207 L 691.95508 396.2207 L 691.95508 258.31445 L 585.36914 258.31445 L 585.36914 292.17578 L 570.25195 292.17578 L 570.25195 219.44141 L 585.36914 219.44141 L 585.36914 243.19727 L 691.95508 243.19727 L 691.95508 125.5 L 492.43164 125.5 z "
       transform="scale(0.26458333)"
       id="rect1729" />
  </g>
</svg>
